<?xml version="1.0" encoding="UTF-8" standalone="no"?>
<!-- Generator: Adobe Illustrator 25.2.0, SVG Export Plug-In . SVG Version: 6.00 Build 0)  -->

<svg
   version="1.1"
   id="Capa_1"
   x="0px"
   y="0px"
   viewBox="0 0 128 128"
   xml:space="preserve"
   sodipodi:docname="SDMX_logo_squared.svg"
   width="128"
   height="128"
   inkscape:version="1.4.2 (f4327f4, 2025-05-13)"
   xmlns:inkscape="http://www.inkscape.org/namespaces/inkscape"
   xmlns:sodipodi="http://sodipodi.sourceforge.net/DTD/sodipodi-0.dtd"
   xmlns="http://www.w3.org/2000/svg"
   xmlns:svg="http://www.w3.org/2000/svg"><defs
   id="defs7">
	
	
	
	
</defs><sodipodi:namedview
   id="namedview7"
   pagecolor="#ffffff"
   bordercolor="#000000"
   borderopacity="0.25"
   inkscape:showpageshadow="2"
   inkscape:pageopacity="0.0"
   inkscape:pagecheckerboard="0"
   inkscape:deskcolor="#d1d1d1"
   showgrid="false"
   inkscape:zoom="4.6291768"
   inkscape:cx="113.30308"
   inkscape:cy="46.768574"
   inkscape:window-width="1920"
   inkscape:window-height="1009"
   inkscape:window-x="1912"
   inkscape:window-y="-8"
   inkscape:window-maximized="1"
   inkscape:current-layer="Capa_1" />
<style
   type="text/css"
   id="style1">
	.st0{fill:#999999;}
	.st1{fill:#0092b6;}
	.st2{fill:#0092b6;}
</style>

    
  <g
   id="g1"
   transform="translate(-17.150681,23.719302)"><g
     id="g7"
     style="stroke-width:1.00157;stroke-dasharray:none"
     transform="matrix(0.78481633,0,0,0.78481633,-9.8538376,-43.694649)"><path
       class="st1"
       d="m 81.5,112.7 -5.8,-19.3 19.3,5.8 -4.8,4.8 28.6,28.6 22.9,-22.9 -51,-50.2 c -1.2,-1.1 -3,-1.1 -4.2,0 l -45.6,45.7 c -1.2,1.2 -1.2,3.1 0,4.2 l 48.9,48.1 c 1.2,1.1 3,1.1 4.2,0 L 114.9,136.6 86.2,108 Z"
       id="path5"
       style="stroke-width:1.00157;stroke-dasharray:none" /><path
       class="st1"
       d="M 191.1,104.6 142.2,56.5 c -1.2,-1.1 -3,-1.1 -4.2,0 l -21.1,21.1 28.9,28.9 4.7,-4.7 5.8,19.3 -19.3,-5.8 4.8,-4.8 -28.8,-29 -22.7,22.7 50.9,50.3 c 1.2,1.1 3,1.1 4.2,0 L 191,108.9 c 1.2,-1.2 1.2,-3.2 0.1,-4.3 z"
       id="path6"
       style="stroke-width:1.00157;stroke-dasharray:none" /><path
       class="st2"
       d="m 90.3,104.2 22.7,-22.7 28.9,28.9 -22.7,22.7 c 0.1,0.1 -27.7,-27.7 -28.9,-28.9 z"
       id="path7"
       style="stroke-width:1.00157;stroke-dasharray:none" /></g><g
     id="g11"
     transform="matrix(0.29761672,0,0,0.29761672,18.65117,10.519026)"
     style="stroke-width:1.56706"><path
       d="m 40,160 40,-60 40,40 40,-80 40,60 40,-40 40,70 40,-90 40,40 20,-60"
       stroke="#e21073"
       stroke-width="3.13412"
       fill="none"
       id="path2" /><circle
       cx="40"
       cy="160"
       r="4"
       fill="#e21073"
       id="circle2"
       style="stroke-width:1.56706" /><circle
       cx="80"
       cy="100"
       r="4"
       fill="#e21073"
       id="circle3"
       style="stroke-width:1.56706" /><circle
       cx="120"
       cy="140"
       r="4"
       fill="#e21073"
       id="circle4"
       style="stroke-width:1.56706" /><circle
       cx="160"
       cy="60"
       r="4"
       fill="#e21073"
       id="circle5"
       style="stroke-width:1.56706" /><circle
       cx="200"
       cy="120"
       r="4"
       fill="#e21073"
       id="circle6"
       style="stroke-width:1.56706" /><circle
       cx="240"
       cy="80"
       r="4"
       fill="#e21073"
       id="circle7"
       style="stroke-width:1.56706" /><circle
       cx="280"
       cy="150"
       r="4"
       fill="#e21073"
       id="circle8"
       style="stroke-width:1.56706" /><circle
       cx="320"
       cy="60"
       r="4"
       fill="#e21073"
       id="circle9"
       style="stroke-width:1.56706" /><circle
       cx="360"
       cy="100"
       r="4"
       fill="#e21073"
       id="circle10"
       style="stroke-width:1.56706" /><circle
       cx="380"
       cy="40"
       r="4"
       fill="#e21073"
       id="circle11"
       style="stroke-width:1.56706" /></g></g>
</svg>
